<svg width="120" height="120" viewBox="0 0 120 120" fill="none" xmlns="http://www.w3.org/2000/svg">
<rect width="120" height="120" rx="10" fill="white"/>
<path d="M39.4996 84.84C35.9062 84.84 32.7329 84.2333 29.9796 83.02C27.2262 81.76 25.0562 79.9867 23.4696 77.7C21.8829 75.3667 21.0662 72.5433 21.0196 69.23H30.4696C30.5629 71.5167 31.3796 73.4533 32.9196 75.04C34.5062 76.58 36.6762 77.35 39.4296 77.35C41.8096 77.35 43.6996 76.79 45.0996 75.67C46.4996 74.5033 47.1996 72.9633 47.1996 71.05C47.1996 69.0433 46.5696 67.48 45.3096 66.36C44.0962 65.24 42.4629 64.33 40.4096 63.63C38.3562 62.93 36.1629 62.1833 33.8296 61.39C30.0496 60.0833 27.1562 58.4033 25.1496 56.35C23.1896 54.2967 22.2096 51.5667 22.2096 48.16C22.1629 45.2667 22.8396 42.7933 24.2396 40.74C25.6862 38.64 27.6462 37.03 30.1196 35.91C32.5929 34.7433 35.4396 34.16 38.6596 34.16C41.9262 34.16 44.7962 34.7433 47.2696 35.91C49.7896 37.0767 51.7496 38.71 53.1496 40.81C54.5962 42.91 55.3662 45.4067 55.4596 48.3H45.8696C45.8229 46.5733 45.1462 45.0567 43.8396 43.75C42.5796 42.3967 40.8062 41.72 38.5196 41.72C36.5596 41.6733 34.9029 42.1633 33.5496 43.19C32.2429 44.17 31.5896 45.6167 31.5896 47.53C31.5896 49.1633 32.1029 50.47 33.1296 51.45C34.1562 52.3833 35.5562 53.1767 37.3296 53.83C39.1029 54.4833 41.1329 55.1833 43.4196 55.93C45.8462 56.77 48.0629 57.75 50.0696 58.87C52.0762 59.99 53.6862 61.4833 54.8996 63.35C56.1129 65.17 56.7196 67.5267 56.7196 70.42C56.7196 72.9867 56.0662 75.3667 54.7596 77.56C53.4529 79.7533 51.5162 81.5267 48.9496 82.88C46.3829 84.1867 43.2329 84.84 39.4996 84.84ZM63.1371 84V35H81.1271C85.0471 35 88.2671 35.6767 90.7871 37.03C93.3538 38.3367 95.2671 40.1333 96.5271 42.42C97.7871 44.66 98.4171 47.1567 98.4171 49.91C98.4171 52.8967 97.6238 55.6267 96.0372 58.1C94.4971 60.5733 92.0705 62.37 88.7571 63.49L98.9072 84H88.6171L79.5171 64.68H72.0971V84H63.1371ZM72.0971 58.1H80.5671C83.5538 58.1 85.7471 57.3767 87.1471 55.93C88.5471 54.4833 89.2471 52.57 89.2471 50.19C89.2471 47.8567 88.5471 45.99 87.1471 44.59C85.7938 43.19 83.5771 42.49 80.4971 42.49H72.0971V58.1Z" fill="url(#paint0_linear_1611_211)"/>
<defs>
<linearGradient id="paint0_linear_1611_211" x1="16.5517" y1="38.1" x2="104.926" y2="87.1429" gradientUnits="userSpaceOnUse">
<stop offset="0.0229659" stop-color="#BA7ECF"/>
<stop offset="0.0961222" stop-color="#F19ED0"/>
<stop offset="0.528086" stop-color="#948DF2"/>
<stop offset="0.781995" stop-color="#B9C2FF"/>
<stop offset="0.913609" stop-color="#FBCEA5"/>
</linearGradient>
</defs>
</svg>
